<?xml version="1.0" standalone="no"?>
<!DOCTYPE svg PUBLIC "-//W3C//DTD SVG 20010904//EN"
 "http://www.w3.org/TR/2001/REC-SVG-20010904/DTD/svg10.dtd">
<svg version="1.0" xmlns="http://www.w3.org/2000/svg"
 width="1500.000000pt" height="1500.000000pt" viewBox="0 0 1500.000000 1500.000000"
 preserveAspectRatio="xMidYMid meet">
<metadata>
Created by potrace 1.11, written by Peter Selinger 2001-2013
</metadata>
<g transform="translate(0.000000,1500.000000) scale(0.100000,-0.100000)"
fill="#000000" stroke="none">
<path d="M4358 13203 l-88 -88 0 -4715 0 -4715 88 -88 87 -87 630 0 630 0 87
87 88 88 0 1787 0 1788 583 0 583 0 1489 -1875 1490 -1875 860 0 860 0 69 145
c48 101 66 149 59 157 -5 7 -720 884 -1588 1948 -868 1064 -1582 1940 -1587
1947 -6 8 28 29 114 72 514 251 956 634 1251 1081 155 236 306 599 371 892
134 602 110 1281 -64 1783 -72 209 -234 493 -394 691 -212 263 -533 517 -872
691 -378 194 -682 277 -1199 328 -383 37 -434 38 -1950 42 l-1510 4 -87 -88z
m2937 -1363 c398 -26 655 -81 880 -190 252 -122 428 -288 535 -505 116 -234
158 -464 146 -795 -19 -548 -164 -938 -461 -1235 -202 -203 -414 -313 -724
-375 -327 -66 -544 -80 -1238 -80 l-553 0 0 1595 0 1595 628 0 c345 0 699 -5
787 -10z"/>
</g>
</svg>
